<svg width="73" height="73" viewBox="0 0 73 77" fill="none" xmlns="http://www.w3.org/2000/svg">
<path d="M0.863496 48.6375C0.0647461 53.865 3.631 57.4913 7.996 59.2988C24.7322 66.2363 48.0197 66.2363 64.756 59.2988C69.121 57.4913 72.6872 53.8613 71.8885 48.6375C71.401 45.4238 68.9747 42.75 67.1785 40.1363C64.8272 36.6713 64.5947 32.895 64.591 28.875C64.5947 13.3425 51.9647 0.75 36.376 0.75C20.7872 0.75 8.15725 13.3425 8.15725 28.875C8.15725 32.895 7.92475 36.675 5.56975 40.1363C3.77725 42.75 1.35475 45.4238 0.863496 48.6375Z" stroke="#253017" stroke-width="1.5" stroke-linecap="round" stroke-linejoin="round"/>
<path d="M21.376 64.5C23.0935 70.9688 29.161 75.75 36.376 75.75C43.5947 75.75 49.6547 70.9688 51.376 64.5" stroke="#253017" stroke-width="1.5" stroke-linecap="round" stroke-linejoin="round"/>
</svg>
